<svg xmlns="http://www.w3.org/2000/svg" width="12" height="12" viewBox="0 0 12 12" fill="none">
  <path d="M8.95334 2.51971L6.00021 5.47283L3.04709 2.51971C2.96884 2.44946 2.88096 2.41433 2.78346 2.41433C2.68596 2.41433 2.59996 2.45146 2.52546 2.52571C2.45096 2.59996 2.41384 2.68596 2.41409 2.78371C2.41434 2.88146 2.44946 2.96933 2.51946 3.04733L5.47259 6.00046L2.51946 8.95358C2.41796 9.05508 2.38471 9.17621 2.41971 9.31696C2.45471 9.45771 2.54071 9.54558 2.67771 9.58058C2.81471 9.61558 2.93771 9.58233 3.04671 9.48083L5.99984 6.52771L8.95296 9.48083C9.03121 9.55108 9.11909 9.58621 9.21659 9.58621C9.31409 9.58621 9.40009 9.54908 9.47459 9.47483C9.54909 9.40058 9.58621 9.31458 9.58596 9.21683C9.58571 9.11908 9.55059 9.03121 9.48059 8.95321L6.52746 6.00008L9.48059 3.04696C9.58209 2.94546 9.61534 2.82433 9.58034 2.68358C9.54534 2.54283 9.45746 2.45496 9.31671 2.41996C9.17596 2.38496 9.05484 2.41821 8.95334 2.51971Z" fill="#C7CDD0"/>
</svg>