<svg width="18" height="18" viewBox="0 0 18 18" fill="none" xmlns="http://www.w3.org/2000/svg">
<g id="Frame 88011580" opacity="0.4">
<g id="Group 88011563">
<rect id="Rectangle 891" x="6.84209" y="6.84404" width="0.414647" height="7.04906" stroke="#2F2725" stroke-width="0.414647"/>
<path id="Vector" d="M9.64591 3.10156H9.64664C9.9515 3.10201 10.2457 3.20575 10.4848 3.39365C10.7235 3.58128 10.8939 3.84192 10.9741 4.13402L10.9768 4.14409L10.9767 4.14411L10.9914 4.20222L10.997 4.20106C11.1935 5.1102 11.1435 6.05802 10.8525 6.93968L13.3783 6.94156L13.4166 6.94159L13.4545 6.94746L13.458 6.94801L13.4625 6.94837C13.6924 6.95854 13.9156 7.02639 14.1127 7.1449C14.3126 7.26503 14.479 7.43306 14.5988 7.63263C14.7401 7.8642 14.8123 8.13185 14.8083 8.40287L14.8082 8.41464L14.808 8.41464L14.8051 8.49208L14.8057 8.50834L14.8082 8.57199L14.7946 8.63424L13.7968 13.2144L13.7784 13.2988L13.7328 13.3721L13.7269 13.3815L13.7229 13.3891C13.6129 13.6164 13.4446 13.8112 13.2335 13.9508L13.2267 13.9553L13.2197 13.9595L13.1694 13.9905L13.1629 13.9945L13.1563 13.9983C12.9737 14.1031 12.7699 14.1651 12.5595 14.1788L12.5495 14.1795L12.5395 14.1797L12.5107 14.1804L12.4958 14.1808L12.4809 14.1803L12.4618 14.1796L4.15418 14.1777L3.65397 14.1776L3.6543 13.6774L3.65776 8.35516L3.65805 7.91027L4.09995 7.85884C5.63327 7.68036 6.55432 7.36759 7.02219 6.96569L9.64591 3.10156ZM9.64591 3.10156C8.85616 3.10156 8.26836 3.72954 8.26623 4.51313L8.26521 4.57783M9.64591 3.10156L8.26521 4.57783M8.26521 4.57783C8.25118 4.93895 8.115 5.39078 7.88159 5.83974C7.64862 6.28786 7.33967 6.69273 7.02231 6.96559L8.26521 4.57783ZM10.8157 6.97531L10.8169 6.97301L10.8157 6.97531Z" stroke="#2F2725"/>
</g>
</g>
</svg>
